<?xml version="1.0" encoding="UTF-8" standalone="no"?>
<svg
   id="Livello_1"
   data-name="Livello 1"
   viewBox="0 0 219.63001 329.35999"
   version="1.1"
   sodipodi:docname="icon_logo_red.svg"
   width="219.63"
   height="329.35999"
   inkscape:version="1.4.4 (dcaf3e7d9e, 2026-05-05)"
   inkscape:export-filename="logo_purge_orizz_red_logo.svg"
   inkscape:export-xdpi="96"
   inkscape:export-ydpi="96"
   xmlns:inkscape="http://www.inkscape.org/namespaces/inkscape"
   xmlns:sodipodi="http://sodipodi.sourceforge.net/DTD/sodipodi-0.dtd"
   xmlns="http://www.w3.org/2000/svg"
   xmlns:svg="http://www.w3.org/2000/svg">
  <sodipodi:namedview
     id="namedview10"
     pagecolor="#ffffff"
     bordercolor="#000000"
     borderopacity="0.25"
     inkscape:showpageshadow="false"
     inkscape:pageopacity="0.0"
     inkscape:pagecheckerboard="true"
     inkscape:deskcolor="#d1d1d1"
     inkscape:zoom="0.62395833"
     inkscape:cx="628.24708"
     inkscape:cy="202.7379"
     inkscape:window-width="2020"
     inkscape:window-height="1387"
     inkscape:window-x="0"
     inkscape:window-y="0"
     inkscape:window-maximized="1"
     inkscape:current-layer="Livello_1"
     showgrid="true"
     labelstyle="default"
     borderlayer="false"
     showborder="false"
     inkscape:antialias-rendering="false"
     inkscape:clip-to-page="false">
    <inkscape:page
       x="0"
       y="0"
       width="219.63"
       height="329.35999"
       id="page1"
       margin="0"
       bleed="0" />
  </sodipodi:namedview>
  <defs
     id="defs1">
    <style
       id="style1">
      .cls-1 {
        fill: #e9403b;
      }

      .cls-2 {
        fill: #1a1a1a;
      }
    </style>
  </defs>
  <g
     id="g10"
     style="fill:#000000;fill-opacity:1"
     transform="translate(-320,-375.31)">
    <path
       class="cls-1"
       d="m 446.89,613.65 c -4.51,4.08 -10.5,6.57 -17.07,6.57 -7,0 -13.35,-2.83 -17.92,-7.43 -4.6,-4.6 -7.45,-10.93 -7.45,-17.95 0,-7 2.85,-13.35 7.45,-17.92 l 17.92,-17.95 17.95,17.95 0.85,0.87 c 4.08,4.49 6.57,10.48 6.57,17.05 0,6.57 -2.49,12.56 -6.57,17.07 l -1.73,1.73 z"
       id="path9"
       style="display:inline;fill:#000000;fill-opacity:1" />
    <path
       class="cls-1"
       d="m 355.02,675.24 -5.57,-5.57 C 331.17,650.06 320,623.77 320,594.83 c 0,-28.93 11.21,-55.31 29.6,-74.94 l 20.57,-20.57 42.9,42.9 -17.94,17.94 c -9.58,9.58 -14.38,22.14 -14.38,34.7 -0.04,12.56 4.78,25.14 14.38,34.7 9.58,9.58 22.14,14.38 34.67,14.36 12.56,0 25.1,-4.78 34.72,-14.36 9.58,-9.58 14.38,-22.14 14.34,-34.7 0,-12.56 -4.76,-25.12 -14.34,-34.7 l -34.72,-34.68 0.02,-0.02 -42.48,-42.48 c -0.17,-0.13 -0.3,-0.26 -0.43,-0.43 l -0.02,0.02 v -0.04 c -0.17,-0.13 -0.3,-0.26 -0.43,-0.43 -23.12,-23.6 -23.12,-61.31 0,-84.91 0.13,-0.17 0.26,-0.3 0.43,-0.43 l 21.45,-21.45 c -3.15,3.15 -5.44,6.77 -6.92,10.69 -4.11,10.8 -1.8,23.49 6.9,32.19 l 64.38,64.38 0.02,-0.02 31.74,31.74 5.87,5.91 c 18.22,19.59 29.3,45.84 29.3,74.64 0,28.76 -11.06,54.91 -29.15,74.49 -1.95,2.16 -4.01,4.22 -6.19,6.19 -19.59,18.09 -45.73,29.15 -74.49,29.15 -28.91,-0.02 -55.21,-11.19 -74.79,-29.45 z"
       id="path10"
       style="fill:#000000;fill-opacity:1" />
  </g>
</svg>
